<?xml version="1.0" standalone="no"?>
<!DOCTYPE svg PUBLIC "-//W3C//DTD SVG 20010904//EN"
 "http://www.w3.org/TR/2001/REC-SVG-20010904/DTD/svg10.dtd">
<svg version="1.0" xmlns="http://www.w3.org/2000/svg"
 width="157.000000pt" height="157.000000pt" viewBox="0 0 157.000000 157.000000"
 preserveAspectRatio="xMidYMid meet">
<metadata>
Created by potrace 1.11, written by Peter Selinger 2001-2013
</metadata>
<g transform="translate(0.000000,157.000000) scale(0.100000,-0.100000)"
fill="#000000" stroke="none">
<path d="M759 1544 c-32 -39 -167 -88 -274 -99 -144 -15 -153 -18 -185 -69
-30 -50 -47 -143 -49 -275 -1 -63 -6 -122 -11 -132 -6 -10 -6 -28 0 -46 5 -15
11 -86 14 -158 5 -142 16 -202 47 -252 25 -41 40 -49 104 -57 99 -14 121 -17
165 -26 25 -5 57 -13 70 -18 14 -5 29 -10 33 -10 4 -1 30 -17 57 -36 l49 -35
49 33 c77 51 138 69 325 91 59 7 89 26 113 75 28 58 34 96 40 253 2 71 8 136
13 146 6 10 6 23 0 33 -5 9 -11 76 -13 150 -5 144 -18 214 -48 266 -26 43 -37
48 -148 62 -147 18 -273 60 -309 104 -8 9 -17 16 -21 16 -4 0 -13 -7 -21 -16z"/>
<path d="M285 222 c-30 -6 -32 -16 -31 -115 1 -87 2 -92 24 -95 19 -3 22 1 22
32 0 22 5 36 13 37 34 2 63 11 79 26 21 19 24 62 5 87 -14 19 -78 35 -112 28z
m75 -71 c0 -19 -18 -31 -46 -31 -18 0 -19 56 -1 63 19 7 47 -12 47 -32z"/>
<path d="M799 212 c-1 -9 -3 -33 -4 -52 -1 -19 -3 -39 -4 -44 0 -5 -19 16 -42
47 -29 41 -47 57 -63 57 -23 0 -23 -2 -22 -102 1 -96 3 -103 21 -103 17 0 21
8 25 64 l5 65 26 -35 c14 -19 33 -48 42 -66 24 -45 57 -42 58 7 5 139 2 164
-20 172 -16 6 -21 3 -22 -10z"/>
<path d="M922 222 l-33 -3 3 -102 3 -102 42 -3 c55 -4 110 20 123 53 37 97
-26 168 -138 157z m84 -53 c3 -6 9 -23 14 -39 11 -37 -19 -80 -56 -80 -26 0
-26 1 -26 55 0 83 0 82 32 77 17 -2 33 -8 36 -13z"/>
<path d="M1185 220 c-83 -11 -111 -124 -46 -182 79 -71 187 -2 167 105 -6 34
-37 70 -66 78 -8 3 -33 2 -55 -1z m65 -61 c29 -53 -5 -117 -55 -105 -34 9 -51
46 -39 88 14 48 72 59 94 17z"/>
<path d="M500 201 c-13 -26 -70 -173 -70 -183 0 -4 11 -7 24 -6 17 2 27 10 31
25 4 19 12 23 44 23 30 0 40 -5 49 -24 7 -15 19 -23 35 -23 l24 0 -29 76 c-16
42 -34 88 -40 104 -12 33 -52 37 -68 8z m49 -71 c5 -16 9 -30 8 -31 -4 -2 -57
-6 -57 -4 0 13 24 65 30 65 4 0 13 -13 19 -30z"/>
</g>
</svg>
